
<svg  class="hidden">
  <symbol fill="" xmlns="http://www.w3.org/2000/svg" viewBox="0 0 32 32" id="almond">
    <g clip-path="url(#clip0_28328_260)">
      <path d="M26.08 11.2274V9.12612C26.08 8.73628 25.7639 8.42024 25.3741 8.42024H22.096C21.7061 8.42024 21.3901 8.73628 21.3901 9.12612V11.2274C21.0301 11.2596 20.7478 11.5617 20.7478 11.9301V15.7258C20.7478 16.5907 21.4515 17.2943 22.3164 17.2943H23.0292V24.8141C23.0292 25.7924 22.2331 26.5882 21.2546 26.5882H13.5383C12.5601 26.5882 11.7642 25.7924 11.7642 24.8141V23.2941H13.2654C13.6552 23.2941 13.9713 22.9781 13.9713 22.5882V20.298H14.7211C15.8887 20.298 16.8387 19.348 16.8387 18.1804V11.7782C16.8387 10.8261 16.2069 10.0189 15.3407 9.75327V7.33271C15.3407 6.94287 15.0246 6.62682 14.6348 6.62682H13.647V4.70588C13.647 4.31605 13.331 4 12.9412 4C12.5513 4 12.2353 4.31605 12.2353 4.70588V6.62682H9.88139V4.70588C9.88139 4.31605 9.56534 4 9.17551 4C8.78567 4 8.46963 4.31605 8.46963 4.70588V6.62682H7.48186C7.09202 6.62682 6.77598 6.94287 6.77598 7.33271V9.75327C5.90967 10.0189 5.27795 10.826 5.27795 11.7782V18.1804C5.27795 19.348 6.22793 20.298 7.3956 20.298H8.14539V22.5882C8.14539 22.9781 8.46144 23.2941 8.85127 23.2941H10.3524V24.8141C10.3524 26.5708 11.7816 28 13.5383 28H21.2546C23.0115 28 24.4409 26.5708 24.4409 24.8141V17.2943H25.1535C26.0184 17.2943 26.722 16.5907 26.722 15.7258V11.9301C26.722 11.5618 26.4398 11.2598 26.08 11.2274ZM13.9289 8.03859V9.66056H8.18774V8.03859H13.9289ZM6.68967 18.1804V11.7782C6.68967 11.389 7.00633 11.0723 7.39555 11.0723H14.7211C15.1103 11.0723 15.4269 11.389 15.4269 11.7782V18.1804C15.4269 18.5696 15.1103 18.8863 14.7211 18.8863C14.4252 18.8863 7.73245 18.8863 7.39555 18.8863C7.00633 18.8863 6.68967 18.5696 6.68967 18.1804ZM9.55715 20.298H12.5595V21.8824H9.55715V20.298ZM24.6682 9.832V11.2242H22.8019V9.832H24.6682ZM25.3103 15.7258C25.3103 15.8122 25.2399 15.8825 25.1535 15.8825C25.0671 15.8825 23.1153 15.8825 22.3164 15.8825C22.2299 15.8825 22.1596 15.8122 22.1596 15.7258V12.636H25.3103V15.7258Z" fill=""></path>
      <path d="M10.1638 15.6851H10.8799L10.5678 16.4089C10.4134 16.7669 10.5785 17.1823 10.9364 17.3366C11.295 17.4911 11.7099 17.3255 11.8641 16.9679L12.6011 15.2588C12.802 14.7928 12.4593 14.2734 11.9529 14.2734H11.2368L11.5489 13.5496C11.7033 13.1917 11.5382 12.7763 11.1802 12.6219C10.8222 12.4676 10.4069 12.6327 10.2526 12.9906L9.51558 14.6998C9.31464 15.1657 9.65741 15.6851 10.1638 15.6851Z" fill=""></path>
    </g>
    <defs>
      <clipPath id="clip0_28328_260">
        <rect width="24" height="24" fill="" transform="translate(4 4)"></rect>
      </clipPath>
    </defs>
  </symbol>
  <symbol fill="" xmlns="http://www.w3.org/2000/svg" viewBox="0 0 32 32" id="apitherapy">
    <path d="M28 5.78125H4V23.2266H18.7643V26.2543L21.3884 24.9725L24.0125 26.2543V23.2266H28V5.78125ZM21.3884 20.413C20.0701 20.413 18.9978 19.3406 18.9978 18.0224C18.9978 16.7042 20.0701 15.6318 21.3884 15.6318C22.7066 15.6318 23.7791 16.7042 23.7791 18.0224C23.7791 19.3406 22.7066 20.413 21.3884 20.413ZM21.3884 23.4075L20.1706 24.0023V21.6177C20.5531 21.7477 20.9623 21.8193 21.3884 21.8193C21.8143 21.8193 22.2236 21.7477 22.6063 21.6177V24.0023L21.3884 23.4075ZM26.5938 21.8204H24.0125V20.7626C24.7343 20.071 25.1853 19.0987 25.1853 18.0224C25.1853 15.9288 23.4821 14.2255 21.3884 14.2255C19.2948 14.2255 17.5916 15.9288 17.5916 18.0224C17.5916 19.0987 18.0424 20.0712 18.7643 20.7626V21.8204H5.40625V7.1875H26.5938V21.8204Z" fill=""></path>
    <path d="M6.81415 11.4106H25.1859V12.8169H6.81415V11.4106Z" fill=""></path>
    <path d="M8.92517 8.59595H23.0748V10.0022H8.92517V8.59595Z" fill=""></path>
    <path d="M6.81415 19.0056H13.6544V20.4119H6.81415V19.0056Z" fill=""></path>
    <path d="M6.81415 16.1908H13.6544V17.597H6.81415V16.1908Z" fill=""></path>
  </symbol>
  <symbol fill="" xmlns="http://www.w3.org/2000/svg" viewBox="0 0 24 24" id="bluetooth">
    <g clip-path="url(#clip0_28328_129)">
      <path d="M18.2054 17.5212L13.1636 12L18.2054 6.47941C18.3637 6.30555 18.4445 6.0739 18.4276 5.83901C18.4107 5.60388 18.2984 5.38591 18.1163 5.23643L11.9874 0.195911C11.7305 -0.0154485 11.3753 -0.0598392 11.0746 0.0825203C10.7739 0.22427 10.5823 0.526708 10.5823 0.859239V9.1736L7.06391 5.32043C6.74426 4.97018 6.20042 4.94552 5.85017 5.26544C5.49992 5.58537 5.47526 6.12865 5.79518 6.47918L10.5823 11.7217V12.2784L5.79523 17.5212C5.47503 17.8711 5.49968 18.4147 5.85022 18.7349C6.20075 19.0551 6.74408 19.0304 7.06395 18.6796L10.5821 14.827V23.1408C10.5821 23.473 10.774 23.7757 11.0744 23.9178C11.1913 23.9728 11.3167 24 11.4413 24C11.6369 24 11.8305 23.9336 11.9874 23.8047L18.1163 18.7641C18.2984 18.6143 18.4107 18.3964 18.4276 18.1615C18.4445 17.9267 18.3643 17.695 18.2054 17.5212ZM12.3007 2.67837L16.326 5.98854L12.3007 10.3968V2.67837ZM12.3007 21.3216V13.6035L16.326 18.0115L12.3007 21.3216Z" fill=""></path>
    </g>
    <defs>
      <clipPath id="clip0_28328_129">
        <rect width="24" height="24" fill=""></rect>
      </clipPath>
    </defs>
  </symbol>
  <symbol fill="" xmlns="http://www.w3.org/2000/svg" viewBox="0 0 24 24" id="road">
    <path d="M5.25 4.5C2.355 4.5 0 6.855 0 9.75C0 12.444 4.212 17.2155 4.692 17.751C4.8345 17.9085 5.037 18 5.25 18C5.463 18 5.6655 17.9085 5.808 17.751C6.288 17.2155 10.5 12.444 10.5 9.75C10.5 6.855 8.145 4.5 5.25 4.5ZM5.25 16.1055C3.612 14.163 1.5 11.181 1.5 9.75C1.5 7.683 3.183 6 5.25 6C7.317 6 9 7.683 9 9.75C9 11.1795 6.888 14.163 5.25 16.1055Z" fill=""></path>
    <path d="M5.25 7.5C4.0095 7.5 3 8.5095 3 9.75C3 10.9905 4.0095 12 5.25 12C6.4905 12 7.5 10.9905 7.5 9.75C7.5 8.5095 6.4905 7.5 5.25 7.5ZM5.25 10.5C4.836 10.5 4.5 10.164 4.5 9.75C4.5 9.336 4.836 9 5.25 9C5.664 9 6 9.336 6 9.75C6 10.164 5.664 10.5 5.25 10.5Z" fill="black"></path>
    <path d="M23.25 0H17.25C16.836 0 16.5 0.336 16.5 0.75V5.25V8.25C16.5 8.664 16.836 9 17.25 9C17.664 9 18 8.664 18 8.25V6H23.25C23.664 6 24 5.664 24 5.25V0.75C24 0.336 23.664 0 23.25 0ZM22.5 4.5H18V1.5H22.5V4.5Z" fill=""></path>
    <path d="M21 16.5H13.5C12.6735 16.5 12 15.8265 12 15C12 14.1735 12.6735 13.5 13.5 13.5H15.138C15.4485 14.3715 16.2735 15 17.25 15C18.4905 15 19.5 13.9905 19.5 12.75C19.5 11.5095 18.4905 10.5 17.25 10.5C16.2735 10.5 15.4485 11.1285 15.138 12H13.5C11.8455 12 10.5 13.3455 10.5 15C10.5 16.6545 11.8455 18 13.5 18H21C21.8265 18 22.5 18.6735 22.5 19.5C22.5 20.3265 21.8265 21 21 21H7.362C7.0515 20.1285 6.2265 19.5 5.25 19.5C4.0095 19.5 3 20.5095 3 21.75C3 22.9905 4.0095 24 5.25 24C6.2265 24 7.0515 23.3715 7.362 22.5H21C22.6545 22.5 24 21.1545 24 19.5C24 17.8455 22.6545 16.5 21 16.5ZM17.25 12C17.664 12 18 12.336 18 12.75C18 13.164 17.664 13.5 17.25 13.5C16.836 13.5 16.5 13.164 16.5 12.75C16.5 12.336 16.836 12 17.25 12ZM5.25 22.5C4.836 22.5 4.5 22.164 4.5 21.75C4.5 21.336 4.836 21 5.25 21C5.664 21 6 21.336 6 21.75C6 22.164 5.664 22.5 5.25 22.5Z" fill=""></path>
  </symbol>
  <symbol fill="" xmlns="http://www.w3.org/2000/svg" viewBox="0 0 32 32" id="washing-powder">
    <path d="M24.3373 10.3997H18.9742C19.5392 9.7226 19.88 8.85193 19.88 7.90308C19.88 5.75085 18.1292 4 15.9771 4C13.8249 4 12.074 5.75085 12.074 7.90308C12.074 8.85193 12.4148 9.7226 12.9799 10.3997H7.6167L4.28125 28H27.6728L24.3373 10.3997ZM15.9771 5.40625C17.3537 5.40625 18.4738 6.52631 18.4738 7.90308C18.4738 9.27966 17.3537 10.3997 15.9771 10.3997C14.6003 10.3997 13.4803 9.27966 13.4803 7.90308C13.4803 6.52631 14.6003 5.40625 15.9771 5.40625ZM8.78143 11.806H23.1726L25.975 26.5938H5.979L8.78143 11.806Z" fill="black"></path>
    <path d="M16.0055 16.4026H14.4094L12.1779 18.631V16.4026H11.0309V22.0225H12.1779V20.1017L12.7563 19.5377L14.5044 22.0225H15.985L13.5753 18.7496L16.0055 16.4026Z" fill=""></path>
    <path d="M18.2747 20.0007H19.7903V20.617C19.6685 20.7058 19.5026 20.793 19.2955 20.8766C19.0436 20.9786 18.7817 21.0303 18.5177 21.0303C18.2154 21.0303 17.9261 20.9627 17.6575 20.8294C17.3986 20.701 17.2063 20.5092 17.0701 20.2426C16.9294 19.9677 16.8582 19.6152 16.8582 19.195C16.8582 18.8546 16.9186 18.5355 17.0371 18.2474C17.1041 18.0872 17.1995 17.938 17.3207 17.8034C17.4363 17.6752 17.5936 17.569 17.7878 17.4879C17.9858 17.4053 18.2277 17.3634 18.5071 17.3634C18.7347 17.3634 18.9432 17.4028 19.1269 17.4804C19.3016 17.5542 19.4356 17.6511 19.5251 17.7681C19.6222 17.8948 19.7062 18.0775 19.7751 18.3113L19.8395 18.5302L20.8955 18.2405L20.8386 18.0191C20.7417 17.6419 20.5959 17.329 20.4052 17.0886C20.2094 16.8419 19.939 16.6482 19.601 16.5127C19.2736 16.3814 18.9044 16.3149 18.5036 16.3149C17.9539 16.3149 17.4592 16.4307 17.0331 16.6588C16.5969 16.8925 16.2585 17.2534 16.028 17.7314C15.8037 18.1962 15.6902 18.7026 15.6902 19.2373C15.6902 19.7786 15.8052 20.277 16.0324 20.7184C16.2648 21.1703 16.6132 21.5203 17.0684 21.7587C17.5139 21.9921 18.0145 22.1106 18.5563 22.1106C18.9579 22.1106 19.3547 22.0375 19.7357 21.8932C20.1131 21.7506 20.4832 21.5356 20.8356 21.2546L20.9233 21.1848V18.9271L18.2747 18.9313V20.0007Z" fill=""></path>
  </symbol>
</svg>
